# xmcd CD database file
#
# Track frame offsets:
#	150
#	26880
#	48678
#	82188
#	95385
#	107753
#	122605
#	143758
#	157815
#	174185
#	183538
#	196085
#	203955
#
# Disc length: 2911 seconds
#
# Revision: 0
# Processed by: cddbd v1.5PL3 Copyright (c) Steve Scherf et al.
# Submitted via: CDex 1.50beta8
#
DISCID=ad0b5d0d
DTITLE=日向敏文 - ANOTHER GRAFFITI
DYEAR=1988
DGENRE=Instrumental
TTITLE0=異国の女たち - リミックス・ヴァージョン
TTITLE1=SARAH'S CRIME
TTITLE2=MIDSUMMER NIGHT - 小夜花
TTITLE3=COLORED AIR
TTITLE4=MILAN AND OSIRIS
TTITLE5=LES ENFANTS
TTITLE6=PASSAGE
TTITLE7=MIRAGE
TTITLE8=SARAH -ADAGIO-RONDEAU-MENUET-
TTITLE9=A MOMENT
TTITLE10=PENTIMENTO
TTITLE11=MENUET
TTITLE12=CHAT D'ETE - REFLECTIONS
EXTD=YEAR: 1988/07/
EXTT0=
EXTT1=
EXTT2=
EXTT3=
EXTT4=
EXTT5=
EXTT6=
EXTT7=
EXTT8=
EXTT9=
EXTT10=
EXTT11=
EXTT12=
PLAYORDER=
